<svg width="48" height="32" viewBox="0 0 48 32" fill="none" xmlns="http://www.w3.org/2000/svg">
<path d="M1.5 1.58335V0.541687C1.20163 0.541687 0.915483 0.651434 0.704505 0.846784C0.493526 1.04213 0.375 1.30709 0.375 1.58335H1.5ZM26.25 1.58335H27.375C27.375 1.30709 27.2565 1.04213 27.0455 0.846784C26.8345 0.651434 26.5484 0.541687 26.25 0.541687V1.58335ZM26.25 5.75002V4.70835C25.9516 4.70835 25.6655 4.8181 25.4545 5.01345C25.2435 5.2088 25.125 5.47375 25.125 5.75002H26.25ZM1.5 2.62502H26.25V0.541687H1.5V2.62502ZM25.125 1.58335V26.5834H27.375V1.58335H25.125ZM2.625 22.4167V1.58335H0.375V22.4167H2.625ZM26.25 6.79169H37.5V4.70835H26.25V6.79169ZM45.375 14.0834V22.4167H47.625V14.0834H45.375ZM27.375 26.5834V5.75002H25.125V26.5834H27.375ZM39.885 28.7917C39.2522 29.3769 38.3944 29.7056 37.5 29.7056C36.6056 29.7056 35.7478 29.3769 35.115 28.7917L33.522 30.2667C34.0443 30.7505 34.6645 31.1342 35.3471 31.3961C36.0296 31.6579 36.7612 31.7927 37.5 31.7927C38.2388 31.7927 38.9704 31.6579 39.6529 31.3961C40.3355 31.1342 40.9557 30.7505 41.478 30.2667L39.8873 28.7938L39.885 28.7917ZM35.115 24.375C35.7478 23.7898 36.6056 23.4611 37.5 23.4611C38.3944 23.4611 39.2522 23.7898 39.885 24.375L41.478 22.9C40.9557 22.4162 40.3355 22.0325 39.6529 21.7706C38.9704 21.5088 38.2388 21.3741 37.5 21.3741C36.7612 21.3741 36.0296 21.5088 35.3471 21.7706C34.6645 22.0325 34.0443 22.4162 33.522 22.9L35.1127 24.3729L35.115 24.375ZM12.885 28.7917C12.2522 29.3769 11.3944 29.7056 10.5 29.7056C9.60562 29.7056 8.74781 29.3769 8.115 28.7917L6.522 30.2667C7.04435 30.7505 7.66451 31.1342 8.34706 31.3961C9.02962 31.6579 9.76119 31.7927 10.5 31.7927C11.2388 31.7927 11.9704 31.6579 12.6529 31.3961C13.3355 31.1342 13.9557 30.7505 14.478 30.2667L12.8872 28.7938L12.885 28.7917ZM8.115 24.375C8.74781 23.7898 9.60562 23.4611 10.5 23.4611C11.3944 23.4611 12.2522 23.7898 12.885 24.375L14.478 22.9C13.9557 22.4162 13.3355 22.0325 12.6529 21.7706C11.9704 21.5088 11.2388 21.3741 10.5 21.3741C9.76119 21.3741 9.02962 21.5088 8.34706 21.7706C7.66451 22.0325 7.04435 22.4162 6.522 22.9L8.11275 24.3729L8.115 24.375ZM39.885 24.375C40.5465 24.9834 40.875 25.7813 40.875 26.5834H43.125C43.125 25.2521 42.576 23.9167 41.478 22.9L39.8873 24.3729L39.885 24.375ZM40.875 26.5834C40.875 27.3854 40.5465 28.1834 39.885 28.7917L41.478 30.2667C42.0009 29.7834 42.4156 29.2092 42.6982 28.5771C42.9808 27.945 43.1259 27.2675 43.125 26.5834H40.875ZM33 25.5417H26.25V27.625H33V25.5417ZM35.115 28.7917C34.8009 28.5022 34.5517 28.1581 34.3818 27.7791C34.2119 27.4001 34.1247 26.9937 34.125 26.5834H31.875C31.875 27.9146 32.424 29.25 33.522 30.2667L35.1127 28.7938L35.115 28.7917ZM34.125 26.5834C34.125 25.7813 34.4535 24.9834 35.115 24.375L33.522 22.9C32.9991 23.3833 32.5844 23.9575 32.3018 24.5896C32.0192 25.2217 31.8741 25.8992 31.875 26.5834H34.125ZM8.115 28.7917C7.80091 28.5022 7.55175 28.1581 7.38184 27.7791C7.21194 27.4001 7.12465 26.9937 7.125 26.5834H4.875C4.875 27.9146 5.424 29.25 6.522 30.2667L8.11275 28.7938L8.115 28.7917ZM7.125 26.5834C7.125 25.7813 7.4535 24.9834 8.115 24.375L6.522 22.9C5.9991 23.3833 5.58444 23.9575 5.3018 24.5896C5.01917 25.2217 4.87413 25.8992 4.875 26.5834H7.125ZM26.25 25.5417H15V27.625H26.25V25.5417ZM12.885 24.375C13.5465 24.9834 13.875 25.7813 13.875 26.5834H16.125C16.125 25.2521 15.576 23.9167 14.478 22.9L12.8872 24.3729L12.885 24.375ZM13.875 26.5834C13.875 27.3854 13.5465 28.1834 12.885 28.7917L14.478 30.2667C15.0009 29.7834 15.4156 29.2092 15.6982 28.5771C15.9808 27.945 16.1259 27.2675 16.125 26.5834H13.875ZM45.375 22.4167C45.375 23.2455 45.0194 24.0403 44.3865 24.6264C43.7535 25.2124 42.8951 25.5417 42 25.5417V27.625C43.4918 27.625 44.9226 27.0763 45.9775 26.0995C47.0324 25.1228 47.625 23.798 47.625 22.4167H45.375ZM37.5 6.79169C39.5886 6.79169 41.5916 7.55992 43.0685 8.92737C44.5453 10.2948 45.375 12.1495 45.375 14.0834H47.625C47.625 11.5969 46.5583 9.21238 44.6595 7.45423C42.7607 5.69608 40.1853 4.70835 37.5 4.70835V6.79169ZM0.375 22.4167C0.375 23.798 0.967632 25.1228 2.02252 26.0995C3.07742 27.0763 4.50816 27.625 6 27.625V25.5417C5.10489 25.5417 4.24645 25.2124 3.61351 24.6264C2.98058 24.0403 2.625 23.2455 2.625 22.4167H0.375Z" fill="#F7763D"/>
</svg>
