<svg width="35" height="30" viewBox="0 0 35 30" fill="none" xmlns="http://www.w3.org/2000/svg">
<path fill-rule="evenodd" clip-rule="evenodd" d="M17.4583 1.72044C20.1683 0.186995 23.7683 -0.236641 26.8783 0.655381C33.6433 2.60799 35.7433 9.20865 33.8649 14.4608C30.9666 22.7098 18.5883 28.863 18.0633 29.121C17.8766 29.2135 17.6699 29.2598 17.4633 29.2598C17.2566 29.2598 17.0516 29.215 16.8649 29.124C16.3433 28.8689 4.05492 22.8068 1.05992 14.4623L1.05825 14.4608C-0.821745 9.20716 1.27159 2.605 8.02992 0.655381C11.2033 -0.263491 14.6616 0.140753 17.4583 1.72044ZM8.79659 2.7855C3.32826 4.36369 1.95492 9.62781 3.43992 13.7792C5.77659 20.2858 15.0083 25.547 17.4616 26.8492C19.9233 25.5336 29.2216 20.2142 31.4833 13.7851C32.9683 9.62931 31.5899 4.36518 26.1133 2.7855C23.4599 2.02325 20.3649 2.48716 18.2283 3.9669C17.7816 4.27419 17.1616 4.28015 16.7116 3.97585C14.4483 2.45285 11.4916 2.00684 8.79659 2.7855ZM24.5133 5.74781C26.7849 6.40564 28.3766 8.2061 28.5716 10.3347C28.6266 10.9508 28.1149 11.4908 27.4266 11.54C27.3916 11.543 27.3583 11.5445 27.3233 11.5445C26.6783 11.5445 26.1316 11.1014 26.0783 10.5167C25.9683 9.29055 25.0516 8.25532 23.7466 7.87793C23.0883 7.68699 22.7283 7.05602 22.9399 6.46979C23.1549 5.88207 23.8533 5.56285 24.5133 5.74781Z" fill="black"/>
</svg>
