<svg width="34" height="34" viewBox="0 0 34 34" fill="none" xmlns="http://www.w3.org/2000/svg">
<path fill-rule="evenodd" clip-rule="evenodd" d="M8.78957 28.9691C9.97957 28.9691 10.9479 29.9358 10.9479 31.1258C10.9479 32.3158 9.97957 33.2841 8.78957 33.2841C7.59957 33.2841 6.63291 32.3158 6.63291 31.1258C6.63291 29.9358 7.59957 28.9691 8.78957 28.9691ZM27.5901 28.9691C28.7817 28.9691 29.7501 29.9358 29.7501 31.1258C29.7501 32.3158 28.7817 33.2841 27.5901 33.2841C26.4001 33.2841 25.4334 32.3158 25.4334 31.1258C25.4334 29.9358 26.4001 28.9691 27.5901 28.9691ZM1.66324 0.731754L5.12991 1.33175C5.68824 1.43009 6.11324 1.89342 6.16157 2.46009L6.55324 7.12842L8.00966 7.12905C8.24732 7.12915 8.48246 7.12926 8.71511 7.12936L11.3889 7.13063C11.6021 7.13074 11.8128 7.13085 12.0212 7.13096L14.9735 7.13258C15.159 7.13268 15.3423 7.13279 15.5233 7.1329L17.5922 7.13422C17.7561 7.13433 17.9179 7.13444 18.0777 7.13455L19.8974 7.13589C20.041 7.13601 20.1827 7.13612 20.3225 7.13623L21.9091 7.1376C22.0339 7.13771 22.1569 7.13782 22.278 7.13794L23.3208 7.13898C23.4315 7.13909 23.5404 7.13921 23.6476 7.13932L24.8553 7.14073C24.9494 7.14084 25.042 7.14096 25.1331 7.14108L26.1527 7.1425C26.2317 7.14262 26.3093 7.14274 26.3855 7.14286L27.0335 7.14394C27.1014 7.14406 27.168 7.14419 27.2332 7.14431L27.9551 7.14577C28.0103 7.14589 28.0643 7.14601 28.1171 7.14614L28.5614 7.14725C28.6073 7.14737 28.6522 7.1475 28.6961 7.14762L29.1723 7.14912C29.208 7.14925 29.2428 7.14938 29.2766 7.1495L29.5562 7.15064C29.5846 7.15077 29.6122 7.1509 29.6389 7.15103L29.9218 7.15257C29.9424 7.1527 29.9622 7.15282 29.9813 7.15295L30.1355 7.15412C30.1507 7.15425 30.1653 7.15439 30.1793 7.15452L30.2903 7.1557C30.301 7.15583 30.3113 7.15596 30.321 7.1561L30.3965 7.15729C30.4036 7.15743 30.4103 7.15756 30.4167 7.15769L30.4645 7.1589C30.4688 7.15904 30.4729 7.15917 30.4767 7.15931L30.5113 7.16094L30.5172 7.16135C30.5335 7.16287 30.5382 7.16342 30.5382 7.16342C31.4666 7.29842 32.2832 7.78342 32.8399 8.53009C33.3966 9.27509 33.6299 10.1934 33.4966 11.1134L31.9149 22.0434C31.6166 24.1234 29.8099 25.6918 27.7099 25.6918H9.50824C7.31324 25.6918 5.45491 23.9784 5.27657 21.7868L3.74991 3.63009L1.23824 3.19675C0.556572 3.07675 0.101572 2.43175 0.218239 1.75009C0.338239 1.06842 0.996572 0.625087 1.66324 0.731754ZM7.67529 9.62899L6.76324 9.62842L7.76824 21.5818C7.84157 22.5018 8.59324 23.1918 9.51157 23.1918H27.7066C28.5749 23.1918 29.3166 22.5451 29.4399 21.6868L31.0232 10.7551C31.0599 10.4951 30.9949 10.2351 30.8366 10.0251C30.6799 9.81342 30.4499 9.67675 30.1899 9.64009C30.1779 9.64055 30.1491 9.64097 30.1044 9.64135L29.9231 9.64239C29.8852 9.64254 29.8435 9.64269 29.7981 9.64282L28.8539 9.64426C28.7742 9.64432 28.6914 9.64436 28.6055 9.64441L26.3856 9.64431C26.2617 9.64427 26.1355 9.64422 26.007 9.64416L23.4735 9.64262C23.3217 9.64251 23.1683 9.6424 23.0133 9.64228L21.5797 9.64113C21.4164 9.64099 21.2519 9.64085 21.0863 9.64071L19.5678 9.63938C19.3963 9.63922 19.224 9.63907 19.051 9.63891L18.005 9.63795C17.8295 9.63778 17.6535 9.63762 17.4771 9.63746L15.8809 9.63597C15.7029 9.6358 15.5248 9.63563 15.3468 9.63547L14.279 9.63447C14.1013 9.63431 13.9238 9.63415 13.7466 9.63398L12.688 9.63302C12.5124 9.63286 12.3373 9.63271 12.1629 9.63256L10.612 9.63122C10.4422 9.63108 10.2732 9.63094 10.1053 9.6308L8.14539 9.62931C7.98723 9.6292 7.8305 9.62909 7.67529 9.62899ZM25.0297 13.2889C25.7197 13.2889 26.2797 13.8489 26.2797 14.5389C26.2797 15.2289 25.7197 15.7889 25.0297 15.7889H20.4097C19.7181 15.7889 19.1597 15.2289 19.1597 14.5389C19.1597 13.8489 19.7181 13.2889 20.4097 13.2889H25.0297Z" fill="black"/>
</svg>
