<svg width="19" height="22" viewBox="0 0 19 22" fill="none" xmlns="http://www.w3.org/2000/svg">
<path fill-rule="evenodd" clip-rule="evenodd" d="M4.47471 0.184893C5.44457 0.200632 6.13572 1.07889 7.01007 2.19009C7.22627 2.46396 7.45983 2.76301 7.72118 3.0778C8.98799 4.60977 8.62766 5.85948 8.33679 6.8626C8.02074 7.95701 7.74723 8.90138 9.3848 10.8803C11.0224 12.8593 11.8029 12.5288 12.7077 12.1437C13.5386 11.7932 14.5701 11.3546 15.8395 12.8866C16.0974 13.1982 16.3405 13.4774 16.5663 13.7365C17.4893 14.7984 18.2186 15.6368 18.2309 16.812C18.2403 17.813 17.7367 18.835 16.4933 20.3376L15.9429 19.8864L16.4091 20.4352C16.1339 20.7762 15.4019 21.6849 13.9684 21.6954H13.9424C11.7786 21.6954 8.9576 19.6136 5.55745 15.5056C2.1434 11.3809 0.418136 7.96121 0.431087 5.34112C0.438975 3.60979 1.19003 2.72314 1.47222 2.39051L1.49631 2.35872L1.55471 2.28768C2.80068 0.781941 3.6568 0.162858 4.47471 0.184893ZM4.45821 1.75883H4.45127C4.06136 1.75883 3.46922 2.23102 2.64337 3.20045L2.47754 3.39726L2.47942 3.39678C2.47942 3.39678 2.46525 3.41643 2.4411 3.44619L2.38304 3.5164C2.17292 3.76299 1.73791 4.27609 1.73353 5.34952C1.72662 6.85106 2.54367 9.63903 6.47782 14.3923C10.3929 19.1226 12.6964 20.1215 13.9424 20.1215H13.9606C14.8488 20.1152 15.2726 19.5895 15.4766 19.3366C15.5382 19.26 15.5886 19.2023 15.6242 19.1677C16.4899 18.1152 16.9327 17.3335 16.9284 16.8309C16.9231 16.3188 16.3961 15.7144 15.6676 14.8761C15.4358 14.6106 15.184 14.3199 14.9183 13.9988C14.2289 13.1689 13.8894 13.3105 13.1383 13.6295C12.1008 14.0692 10.6794 14.6714 8.46443 11.9926C6.24859 9.31585 6.74524 7.59816 7.10731 6.3432C7.36953 5.43661 7.48935 5.02424 6.80081 4.1911C6.53165 3.86582 6.2894 3.55732 6.06625 3.27401C5.37685 2.3989 4.87932 1.76618 4.45821 1.75883ZM11.9324 3.91776C13.7393 4.34167 15.1346 6.02684 15.4862 8.21147C15.5548 8.63958 15.3247 9.05195 14.9722 9.13485C14.9297 9.14429 14.888 9.14954 14.8463 9.14954C14.5407 9.14954 14.2689 8.88931 14.2081 8.51367C13.9581 6.96071 12.9674 5.76347 11.6841 5.46232C11.3307 5.37942 11.1006 4.96705 11.1692 4.53999C11.2378 4.11293 11.5851 3.83381 11.9324 3.91776ZM11.8804 0.190874C15.4212 0.666204 18.171 3.98512 18.5678 8.26309C18.6078 8.6954 18.3508 9.08469 17.9939 9.13296C17.9696 9.13611 17.9444 9.1382 17.9201 9.1382C17.5928 9.1382 17.3114 8.84125 17.2741 8.43937C16.945 4.89696 14.6684 2.14781 11.7363 1.75432C11.3794 1.70605 11.1215 1.31782 11.1615 0.885507C11.2005 0.454247 11.5192 0.136311 11.8804 0.190874Z" fill="black"/>
</svg>
