<svg width="23" height="23" viewBox="0 0 23 23" fill="none" xmlns="http://www.w3.org/2000/svg">
<path fill-rule="evenodd" clip-rule="evenodd" d="M10.7172 0.166687C16.5347 0.166687 21.2667 4.89869 21.2667 10.7162C21.2667 13.4609 20.2134 15.9642 18.4898 17.8429L21.8814 21.2274C22.1988 21.5449 22.1999 22.0584 21.8825 22.3758C21.7243 22.5361 21.5153 22.6152 21.3073 22.6152C21.1003 22.6152 20.8923 22.5361 20.7331 22.3779L17.3005 18.9549C15.4948 20.401 13.2053 21.2668 10.7172 21.2668C4.89974 21.2668 0.166656 16.5337 0.166656 10.7162C0.166656 4.89869 4.89974 0.166687 10.7172 0.166687ZM10.7172 1.79169C5.79566 1.79169 1.79166 5.7946 1.79166 10.7162C1.79166 15.6378 5.79566 19.6418 10.7172 19.6418C15.6377 19.6418 19.6417 15.6378 19.6417 10.7162C19.6417 5.7946 15.6377 1.79169 10.7172 1.79169Z" fill="white"/>
</svg>
