<svg width="39" height="39" viewBox="0 0 39 39" fill="none" xmlns="http://www.w3.org/2000/svg">
<path fill-rule="evenodd" clip-rule="evenodd" d="M27.6262 0.892212C33.9806 0.892212 38.25 5.35096 38.25 11.9847V27.2997C38.25 33.9335 33.9806 38.3922 27.6244 38.3922H11.3719C5.0175 38.3922 0.75 33.9335 0.75 27.2997V11.9847C0.75 5.35096 5.0175 0.892212 11.3719 0.892212H27.6262ZM27.6262 3.70471H11.3719C6.62813 3.70471 3.5625 6.95409 3.5625 11.9847V27.2997C3.5625 32.3303 6.62813 35.5797 11.3719 35.5797H27.6244C32.37 35.5797 35.4375 32.3303 35.4375 27.2997V11.9847C35.4375 6.95409 32.37 3.70471 27.6262 3.70471ZM27.1678 14.1991C27.7172 14.7485 27.7172 15.6372 27.1678 16.1866L18.2691 25.0853C17.9953 25.361 17.6353 25.4978 17.2753 25.4978C16.9172 25.4978 16.5553 25.361 16.2816 25.0853L11.8303 20.636C11.2809 20.0866 11.2809 19.1978 11.8303 18.6485C12.3797 18.0991 13.2684 18.0991 13.8178 18.6485L17.2753 22.1022L25.1803 14.1991C25.7297 13.6497 26.6184 13.6497 27.1678 14.1991Z" fill="#F7763D"/>
</svg>
