<svg width="27" height="34" viewBox="0 0 27 34" fill="none" xmlns="http://www.w3.org/2000/svg">
<path fill-rule="evenodd" clip-rule="evenodd" d="M26.4 27.0724C26.4 32.5657 18.8667 33.2007 13.2017 33.2007L12.7963 33.2004C9.18701 33.1916 0 32.9637 0 27.039C0 21.6578 7.23059 20.9386 12.8525 20.9115L13.607 20.9111C17.2161 20.9198 26.4 21.1477 26.4 27.0724ZM13.2017 23.4107C6.1 23.4107 2.5 24.6307 2.5 27.039C2.5 29.469 6.1 30.7007 13.2017 30.7007C20.3017 30.7007 23.9 29.4807 23.9 27.0724C23.9 24.6424 20.3017 23.4107 13.2017 23.4107ZM13.2017 0.083374C18.0817 0.083374 22.05 4.05337 22.05 8.93337C22.05 13.8134 18.0817 17.7817 13.2017 17.7817H13.1483C8.27833 17.7667 4.33333 13.795 4.34995 8.92837C4.34995 4.05337 8.32 0.083374 13.2017 0.083374ZM13.2017 2.46337C9.63333 2.46337 6.72997 5.36504 6.72997 8.93337C6.71833 12.49 9.6 15.39 13.1533 15.4034L13.2017 16.5934V15.4034C16.7683 15.4034 19.67 12.5 19.67 8.93337C19.67 5.36504 16.7683 2.46337 13.2017 2.46337Z" fill="black"/>
</svg>
