<svg width="64" height="70" viewBox="0 0 64 70" fill="none" xmlns="http://www.w3.org/2000/svg">
<path d="M44.375 26C47.48 26 50 28.6325 50 30.5C50 31.6935 49.5259 32.8381 48.682 33.682C47.8381 34.5259 46.6935 35 45.5 35H43.25C43.9175 35 44.57 34.8021 45.125 34.4312C45.6801 34.0604 46.1126 33.5333 46.3681 32.9166C46.6235 32.2999 46.6904 31.6213 46.5602 30.9666C46.4299 30.3119 46.1085 29.7105 45.6365 29.2385C45.1645 28.7665 44.5631 28.4451 43.9084 28.3148C43.2537 28.1846 42.5751 28.2515 41.9584 28.5069C41.3417 28.7624 40.8146 29.1949 40.4438 29.75C40.0729 30.305 39.875 30.9575 39.875 31.625C39.875 32.5201 40.2306 33.3786 40.8635 34.0115C41.4965 34.6444 42.3549 35 43.25 35H38.75C38.75 30.6463 41.27 26 44.375 26ZM19.625 26C22.73 26 25.25 30.6463 25.25 35H20.75C21.4175 35 22.07 34.8021 22.625 34.4312C23.1801 34.0604 23.6126 33.5333 23.8681 32.9166C24.1235 32.2999 24.1904 31.6213 24.0602 30.9666C23.9299 30.3119 23.6085 29.7105 23.1365 29.2385C22.6645 28.7665 22.0631 28.4451 21.4084 28.3148C20.7537 28.1846 20.0751 28.2515 19.4584 28.5069C18.8417 28.7624 18.3146 29.1949 17.9438 29.75C17.5729 30.305 17.375 30.9575 17.375 31.625C17.375 32.5201 17.7306 33.3786 18.3635 34.0115C18.9964 34.6444 19.8549 35 20.75 35H18.5C17.3065 35 16.1619 34.5259 15.318 33.682C14.4741 32.8381 14 31.6935 14 30.5C14 28.6325 16.52 26 19.625 26Z" fill="#675235"/>
<path d="M46.625 42.875L46.6475 42.74C47.0075 42.8333 47.3782 42.8787 47.75 42.875C49.3106 42.8528 50.8644 42.6643 52.385 42.3125C52.6376 42.2547 52.8999 42.2543 53.1526 42.3115C53.4053 42.3687 53.6419 42.482 53.8449 42.6429C54.048 42.8038 54.2123 43.0083 54.3257 43.2413C54.439 43.4742 54.4986 43.7297 54.5 43.9887V44C54.5 44 58.0325 43.2912 59.5063 40.76C59.0881 42.048 58.5058 43.2769 57.7738 44.4162C56.8851 45.8121 55.7801 47.0576 54.5 48.1062C52.617 49.7309 50.2355 50.6637 47.75 50.75H37.85C38.4238 50.4237 38.75 50.0412 38.75 49.625C43.7225 49.625 46.625 46.61 46.625 42.875ZM6.22627 44.4162C5.4898 43.2794 4.90723 42.0499 4.49377 40.76C5.96752 43.2912 9.50002 44 9.50002 44V43.9887C9.50095 43.7306 9.55982 43.4759 9.67231 43.2435C9.78479 43.0112 9.948 42.807 10.1499 42.6461C10.3518 42.4852 10.5873 42.3717 10.8389 42.314C11.0905 42.2563 11.3519 42.2557 11.6038 42.3125C13.1283 42.6635 14.6858 42.852 16.25 42.875C16.6219 42.8787 16.9926 42.8333 17.3525 42.74L17.375 42.875C17.375 46.61 20.2775 49.625 25.25 49.625C25.25 50.0412 25.5763 50.4237 26.15 50.75H16.25C13.7645 50.6637 11.383 49.7309 9.50002 48.1062C8.22 47.0576 7.11494 45.8121 6.22627 44.4162Z" fill="#D5CBC1"/>
<path d="M32 42.875C32.2224 42.8733 32.4422 42.8277 32.6468 42.7409C32.8515 42.654 33.0369 42.5275 33.1925 42.3687L35.375 40.625L38.75 35L43.25 39.5C43.527 40.2661 43.978 40.9575 44.5676 41.5197C45.1571 42.082 45.8691 42.4997 46.6475 42.74L46.625 42.875C46.625 46.61 43.7225 49.625 38.75 49.625C34.25 49.625 32 45.125 32 45.125V42.875ZM32 42.875V45.125C32 45.125 29.75 49.625 25.25 49.625C20.2775 49.625 17.375 46.61 17.375 42.875L17.3525 42.74C18.1309 42.4997 18.8429 42.082 19.4325 41.5197C20.0221 40.9575 20.4731 40.2661 20.75 39.5L25.25 35L28.625 40.625L30.8075 42.3687C30.9632 42.5275 31.1486 42.654 31.3533 42.7409C31.5579 42.8277 31.7777 42.8733 32 42.875Z" fill="#F2EFE8"/>
<path d="M35.375 26V40.625C35.375 39.6575 33.8675 38.375 32 38.375C30.1325 38.375 28.625 39.6575 28.625 40.625V26L32 21.5L35.375 26Z" fill="#BFB6AD"/>
<path d="M32 11.375H37.625L35.375 26L32 21.5L28.625 26L26.375 11.375H32Z" fill="#D5CBC1"/>
<path d="M20.75 35C22.614 35 24.125 33.489 24.125 31.625C24.125 29.761 22.614 28.25 20.75 28.25C18.886 28.25 17.375 29.761 17.375 31.625C17.375 33.489 18.886 35 20.75 35Z" fill="#10120D"/>
<path d="M43.25 35C45.114 35 46.625 33.489 46.625 31.625C46.625 29.761 45.114 28.25 43.25 28.25C41.386 28.25 39.875 29.761 39.875 31.625C39.875 33.489 41.386 35 43.25 35Z" fill="#10120D"/>
<path d="M62.375 60.8862V64.25C59.5962 64.2835 56.877 65.0604 54.5 66.5C54.5 63.125 62.375 60.875 62.375 60.875V60.8862ZM9.5 66.5C7.12296 65.0604 4.4038 64.2835 1.625 64.25V60.875C1.625 60.875 9.5 63.125 9.5 66.5Z" fill="#514B3F"/>
<path d="M62.375 60.875C62.3743 57.8976 61.8251 54.9459 60.755 52.1675L60.2038 50.7162L60.125 50.75C60.125 60.695 47.5475 66.5 32 66.5C16.4525 66.5 3.875 60.695 3.875 50.75L3.79625 50.7162L3.245 52.1675C2.17488 54.9459 1.62571 57.8976 1.625 60.875C1.625 60.875 9.5 63.125 9.5 66.5C7.12296 65.0604 4.4038 64.2835 1.625 64.25V69.875H62.375V64.25C59.5962 64.2835 56.877 65.0604 54.5 66.5C54.5 63.125 62.375 60.875 62.375 60.875Z" fill="#DBD6D0"/>
<path d="M60.2038 50.7162L60.125 50.75C60.125 60.695 47.5475 66.5 32 66.5C16.4525 66.5 3.87501 60.695 3.87501 50.75L3.79626 50.7162L6.22626 44.4162C7.11493 45.8121 8.21999 47.0576 9.50001 48.1062V49.49C9.51205 50.5007 9.78575 51.491 10.2944 52.3644C10.8031 53.2378 11.5294 53.9646 12.4025 54.4737C16.4638 56.9262 24.2038 60.875 32 60.875C39.7963 60.875 47.5363 56.9262 51.5975 54.4737C52.4706 53.9646 53.1969 53.2378 53.7056 52.3644C54.2143 51.491 54.488 50.5007 54.5 49.49V48.1062C55.78 47.0576 56.8851 45.8121 57.7738 44.4162L60.2038 50.7162Z" fill="#D5CBC1"/>
<path d="M54.5 48.1063V49.49C54.488 50.5007 54.2143 51.491 53.7056 52.3644C53.1969 53.2378 52.4706 53.9646 51.5975 54.4738C47.5363 56.9263 39.7963 60.875 32 60.875C24.2038 60.875 16.4638 56.9263 12.4025 54.4738C11.5294 53.9646 10.8031 53.2378 10.2944 52.3644C9.78575 51.491 9.51206 50.5007 9.50002 49.49V48.1063C11.383 49.7309 13.7645 50.6637 16.25 50.75H26.15C27.9841 51.5808 29.9886 51.9662 32 51.875C34.0114 51.9662 36.0159 51.5808 37.85 50.75H47.75C50.2355 50.6637 52.617 49.7309 54.5 48.1063ZM43.25 39.5L38.75 35H45.5C46.6935 35 47.8381 34.5259 48.682 33.682C49.5259 32.8381 50 31.6935 50 30.5C50 28.6325 47.48 26 44.375 26C41.27 26 38.75 30.6463 38.75 35L35.375 40.625V26L37.625 11.375H39.875L58.1338 0.710002C58.698 0.327216 59.3645 0.123352 60.0463 0.125002H60.125L45.5 12.5C47.75 13.625 54.5 19.25 54.5 22.9288C55.5691 23.5621 56.4716 24.4414 57.1325 25.4938C59.2352 28.8963 60.277 32.848 60.125 36.845C60.1269 36.9277 60.1231 37.0104 60.1138 37.0925C60.0856 38.3376 59.8811 39.5724 59.5063 40.76C58.0325 43.2912 54.5 44 54.5 44V43.9888C54.4986 43.7297 54.439 43.4742 54.3257 43.2413C54.2123 43.0083 54.048 42.8038 53.8449 42.6429C53.6419 42.482 53.4053 42.3687 53.1526 42.3115C52.8999 42.2543 52.6376 42.2547 52.385 42.3125C50.8644 42.6643 49.3106 42.8528 47.75 42.875C47.3782 42.8787 47.0075 42.8333 46.6475 42.74C45.8691 42.4997 45.1571 42.082 44.5676 41.5197C43.978 40.9575 43.527 40.2661 43.25 39.5ZM6.86752 25.4938C7.5284 24.4414 8.4309 23.5621 9.50002 22.9288C9.50002 19.25 16.25 13.625 18.5 12.5L3.87502 0.125002H3.95377C4.63558 0.123352 5.30205 0.327216 5.86627 0.710002L24.125 11.375H26.375L28.625 26V40.625L25.25 35C25.25 30.6463 22.73 26 19.625 26C16.52 26 14 28.6325 14 30.5C14 31.6935 14.4741 32.8381 15.318 33.682C16.162 34.5259 17.3065 35 18.5 35H25.25L20.75 39.5C20.473 40.2661 20.022 40.9575 19.4325 41.5197C18.8429 42.082 18.1309 42.4997 17.3525 42.74C16.9926 42.8333 16.6219 42.8787 16.25 42.875C14.6858 42.852 13.1283 42.6635 11.6038 42.3125C11.3519 42.2557 11.0905 42.2563 10.8389 42.314C10.5873 42.3717 10.3518 42.4852 10.1499 42.6461C9.948 42.807 9.78478 43.0112 9.6723 43.2435C9.55982 43.4759 9.50094 43.7306 9.50002 43.9888V44C9.50002 44 5.96752 43.2912 4.49377 40.76C4.11895 39.5724 3.91441 38.3376 3.88627 37.0925C3.87691 37.0104 3.87315 36.9277 3.87502 36.845C3.72305 32.848 4.76482 28.8963 6.86752 25.4938Z" fill="#DBD6D0"/>
<path d="M3.87501 0.125061L18.5 12.5001C16.25 13.6251 9.50001 19.2501 9.50001 22.9288C8.43089 23.5621 7.52839 24.4415 6.86751 25.4938L5.63001 23.8401C5.14316 23.1901 4.907 22.3863 4.96486 21.5763C5.02272 20.7663 5.37072 20.0043 5.94501 19.4301L6.12501 19.2501L2.54751 13.5351C1.20917 11.3885 0.499798 8.90963 0.500011 6.38006V3.57881C0.497756 2.67569 0.850143 1.80779 1.48134 1.16186C2.11253 0.515942 2.97208 0.143634 3.87501 0.125061ZM63.5 3.57881V6.38006C63.5002 8.90963 62.7909 11.3885 61.4525 13.5351L57.875 19.2501L58.055 19.4301C58.6293 20.0043 58.9773 20.7663 59.0352 21.5763C59.093 22.3863 58.8569 23.1901 58.37 23.8401L57.1325 25.4938C56.4716 24.4415 55.5691 23.5621 54.5 22.9288C54.5 19.2501 47.75 13.6251 45.5 12.5001L60.125 0.125061C61.0269 0.146778 61.8846 0.520078 62.5152 1.16532C63.1457 1.81056 63.4991 2.67665 63.5 3.57881Z" fill="#FFB9AD"/>
<path d="M26.15 50.75C25.5762 50.4237 25.25 50.0413 25.25 49.625C29.75 49.625 32 45.125 32 45.125C32 45.125 34.25 49.625 38.75 49.625C38.75 50.0413 38.4238 50.4237 37.85 50.75C36.0159 51.5808 34.0114 51.9662 32 51.875C29.9886 51.9662 27.9841 51.5808 26.15 50.75Z" fill="#E6E3DC"/>
<path d="M8.60002 52.2789C9.80478 53.319 11.1948 54.1228 12.6973 54.6481L12.4025 54.4737C11.5294 53.9646 10.8031 53.2378 10.2944 52.3644C9.78576 51.491 9.51206 50.5007 9.50002 49.49V48.1062C8.22 47.0576 7.11494 45.8121 6.22627 44.4162L4.92352 47.7912C5.01465 47.9499 5.10015 48.1107 5.19577 48.2649C6.11163 49.7741 7.2606 51.1289 8.60002 52.2789ZM54.5 48.1062V49.49C54.488 50.5007 54.2143 51.491 53.7056 52.3644C53.1969 53.2378 52.4706 53.9646 51.5975 54.4737L51.3028 54.6481C52.8053 54.1228 54.1953 53.319 55.4 52.2789C56.7393 51.1295 57.8882 49.7756 58.8043 48.2671C58.8999 48.113 58.9854 47.951 59.0765 47.7935L57.7738 44.4185C56.8849 45.8135 55.7799 47.0583 54.5 48.1062Z" fill="#ADA59D"/>
<path d="M12.4025 54.4737L12.6972 54.6481C13.6383 54.9743 14.6263 55.1445 15.6222 55.1521H25.9182C27.8146 56.0522 29.9031 56.4722 32 56.375C34.0976 56.4726 36.187 56.0526 38.084 55.1521H48.38C49.3759 55.1445 50.364 54.9743 51.305 54.6481L51.5998 54.4737C52.4725 53.9643 53.1983 53.2374 53.7066 52.364C54.2148 51.4906 54.4882 50.5005 54.5 49.49V48.1062C52.617 49.7309 50.2355 50.6637 47.75 50.75H37.85C36.0159 51.5807 34.0114 51.9662 32 51.875C29.9886 51.9662 27.9841 51.5807 26.15 50.75H16.25C13.7645 50.6637 11.383 49.7309 9.5 48.1062V49.49C9.51204 50.5007 9.78574 51.491 10.2944 52.3644C10.8031 53.2378 11.5294 53.9646 12.4025 54.4737Z" fill="#C2B9B0"/>
<path d="M34.1724 50.0683C34.7925 50.6112 35.4955 51.0514 36.2548 51.3721C36.8107 51.2331 37.3467 51.0241 37.85 50.75C38.4238 50.4237 38.75 50.0413 38.75 49.625C34.25 49.625 32 45.125 32 45.125C32 45.125 29.75 49.625 25.25 49.625C25.25 50.0413 25.5762 50.4237 26.15 50.75C26.6533 51.0241 27.1893 51.2331 27.7453 51.3721C28.5045 51.0514 29.2075 50.6112 29.8276 50.0683C30.4339 49.5524 31.204 49.2692 32 49.2692C32.796 49.2692 33.5661 49.5524 34.1724 50.0683Z" fill="#D48E81"/>
<path d="M35.375 40.625L33.1925 42.3687C33.0379 42.5289 32.8527 42.6563 32.6478 42.7434C32.4429 42.8304 32.2226 42.8752 32 42.8752C31.7774 42.8752 31.5571 42.8304 31.3522 42.7434C31.1473 42.6563 30.9621 42.5289 30.8075 42.3687L28.625 40.625C28.625 39.6575 30.1325 38.375 32 38.375C33.8675 38.375 35.375 39.6575 35.375 40.625Z" fill="#FCA99A"/>
<path d="M32 39.5C32.5785 39.4917 33.1514 39.6128 33.677 39.8546C34.2026 40.0963 34.6674 40.4526 35.0375 40.8973L35.375 40.625C35.375 39.6575 33.8675 38.375 32 38.375C30.1325 38.375 28.625 39.6575 28.625 40.625L28.9625 40.8973C29.3326 40.4526 29.7974 40.0963 30.323 39.8546C30.8486 39.6128 31.4215 39.4917 32 39.5Z" fill="#FFB9AD"/>
<path d="M1.75662 0.929375L11.7804 10.1184C12.1162 10.4262 12.3862 10.7989 12.5742 11.2139C12.7622 11.6289 12.8642 12.0776 12.874 12.5331C12.8839 12.9886 12.8015 13.4413 12.6317 13.8641C12.4619 14.2869 12.2083 14.6709 11.8861 14.993L8.9465 17.9315C8.1833 18.6864 7.17452 19.1423 6.10362 19.2162L6.125 19.25L5.945 19.43C5.3707 20.0042 5.02271 20.7662 4.96485 21.5762C4.90699 22.3863 5.14315 23.19 5.63 23.84L6.8675 25.4937C7.52837 24.4414 8.43088 23.5621 9.5 22.9288C9.5 19.25 16.25 13.625 18.5 12.5L3.875 0.125C3.09818 0.145593 2.35133 0.429179 1.75662 0.929375ZM52.493 14.993C52.1708 14.6709 51.9172 14.2869 51.7474 13.8641C51.5776 13.4413 51.4952 12.9886 51.5051 12.5331C51.5149 12.0776 51.6169 11.6289 51.8049 11.2139C51.9929 10.7989 52.2629 10.4262 52.5987 10.1184L62.4391 1.097C61.8187 0.49161 60.9916 0.144224 60.125 0.125L45.5 12.5C47.75 13.625 54.5 19.25 54.5 22.9288C55.5691 23.5621 56.4716 24.4414 57.1325 25.4937L58.37 23.84C58.8568 23.19 59.093 22.3863 59.0351 21.5762C58.9773 20.7662 58.6293 20.0042 58.055 19.43L57.875 19.25L57.9177 19.1814C56.9775 19.0386 56.1069 18.601 55.4315 17.9315L52.493 14.993Z" fill="#FCA99A"/>
<path d="M39.875 45.125C36.5 45.125 35.375 40.625 35.375 40.625V40.8185C35.3749 41.4152 35.1378 41.9874 34.7158 42.4092L33.7843 43.3408C33.3623 43.7626 33.1252 44.3348 33.125 44.9315V46.7574C33.7934 47.6203 34.6443 48.3248 35.6167 48.8205C36.5891 49.3163 37.6591 49.591 38.75 49.625C43.7225 49.625 46.625 46.61 46.625 42.875L46.6475 42.74C46.6239 42.7344 46.6059 42.722 46.5823 42.7164C44.6516 44.1976 42.3069 45.0396 39.875 45.125ZM29.2843 42.4092C28.8623 41.9874 28.6252 41.4152 28.625 40.8185V40.625C28.625 40.625 27.5 45.125 24.125 45.125C21.6931 45.0396 19.3485 44.1976 17.4178 42.7164C17.3942 42.7164 17.3762 42.7344 17.3525 42.74L17.375 42.875C17.375 46.61 20.2775 49.625 25.25 49.625C26.341 49.591 27.411 49.3163 28.3834 48.8205C29.3558 48.3248 30.2066 47.6203 30.875 46.7574V44.9315C30.8749 44.3348 30.6378 43.7626 30.2158 43.3408L29.2843 42.4092Z" fill="#E6E3DC"/>
<path d="M28.3517 27.0912C28.5665 27.1451 28.7924 27.1343 29.0012 27.0602C29.2099 26.9862 29.3921 26.8522 29.525 26.675L32 23.3754L34.475 26.675C34.608 26.852 34.7902 26.9859 34.9988 27.0599C35.2075 27.1339 35.4334 27.1446 35.6481 27.0908C35.8629 27.037 36.057 26.921 36.2061 26.7574C36.3552 26.5938 36.4528 26.3898 36.4865 26.171L38.7365 11.546C38.7384 11.4889 38.7358 11.4317 38.7287 11.375H36.4865L34.6697 23.1875L32.9 20.825C32.7907 20.6921 32.6533 20.5851 32.4977 20.5116C32.3421 20.4381 32.1721 20.4 32 20.4C31.828 20.4 31.658 20.4381 31.5024 20.5116C31.3468 20.5851 31.2094 20.6921 31.1 20.825L29.3304 23.1875L27.5135 11.375H25.2714C25.2643 11.4317 25.2616 11.4889 25.2635 11.546L27.5135 26.171C27.5472 26.3898 27.6446 26.5939 27.7937 26.7576C27.9428 26.9213 28.1369 27.0374 28.3517 27.0912Z" fill="#514B3F"/>
<path d="M32 18.125C32.2984 18.125 32.5846 18.0065 32.7955 17.7955C33.0065 17.5845 33.125 17.2984 33.125 17V11.375H30.875V17C30.875 17.2984 30.9936 17.5845 31.2045 17.7955C31.4155 18.0065 31.7017 18.125 32 18.125ZM55.625 35C56.3934 35 58.9067 35.1541 58.9899 37.1375C58.9909 37.1752 58.9943 37.2128 59 37.25C59.0015 37.5278 59.1068 37.795 59.2952 37.9992C59.4835 38.2034 59.7414 38.3298 60.0182 38.3536C60.0713 37.9351 60.1032 37.5142 60.1138 37.0925C60.1231 37.0104 60.1269 36.9277 60.125 36.845C60.125 35.9349 60.0699 35.0844 59.9912 34.2575C58.7865 33.2076 57.2209 32.667 55.625 32.75C54.95 32.75 54.5 30.7509 54.5 29.375C54.5 29.0766 54.3815 28.7905 54.1705 28.5795C53.9596 28.3685 53.6734 28.25 53.375 28.25C53.0767 28.25 52.7905 28.3685 52.5795 28.5795C52.3686 28.7905 52.25 29.0766 52.25 29.375C52.25 31.9704 53.1343 35 55.625 35ZM3.97854 38.3244C4.2469 38.2963 4.49666 38.1741 4.68361 37.9795C4.87056 37.785 4.98265 37.5305 5.00004 37.2612C5.007 37.2211 5.01113 37.1805 5.01241 37.1398C5.09341 35.1541 7.60666 35 8.37504 35C10.8658 35 11.75 31.9704 11.75 29.375C11.75 29.0766 11.6315 28.7905 11.4205 28.5795C11.2096 28.3685 10.9234 28.25 10.625 28.25C10.3267 28.25 10.0405 28.3685 9.82954 28.5795C9.61857 28.7905 9.50004 29.0766 9.50004 29.375C9.50004 30.7183 9.05004 32.75 8.37504 32.75C6.77874 32.6679 5.21306 33.2097 4.00891 34.2609C3.93016 35.0844 3.87504 35.9349 3.87504 36.8484C3.87317 36.931 3.87693 37.0137 3.88629 37.0959C3.89416 37.5042 3.93016 37.9149 3.97854 38.3244ZM8.37504 49.49C8.38421 50.695 8.70672 51.8768 9.31088 52.9195C9.91503 53.9621 10.78 54.8296 11.8209 55.4368C15.8799 57.8881 23.9 62 32 62C40.1 62 48.1202 57.8881 52.1792 55.4356C53.2201 54.8288 54.0852 53.9615 54.6894 52.9191C55.2935 51.8766 55.616 50.6949 55.625 49.49V47.375C55.6183 47.2916 55.6017 47.2092 55.5755 47.1298C55.229 47.4729 54.8735 47.8048 54.5 48.1063C54.1265 48.4078 53.7587 48.6688 53.375 48.9185V49.49C53.3638 50.3074 53.1401 51.1078 52.7259 51.8125C52.3116 52.5173 51.7212 53.1021 51.0125 53.5096C47.1583 55.8406 39.5567 59.75 32 59.75C24.4434 59.75 16.8418 55.8406 12.9875 53.5107C12.2788 53.1031 11.6883 52.518 11.2741 51.8131C10.8599 51.1081 10.6362 50.3076 10.625 49.49V48.9185C10.2414 48.6665 9.86341 48.3999 9.50004 48.1063C9.13666 47.8126 8.77104 47.4729 8.42454 47.1298C8.39836 47.2092 8.38174 47.2916 8.37504 47.375V49.49Z" fill="#514B3F"/>
<path d="M60.755 52.1675L60.2038 50.7162L59.8078 49.6891C59.5763 49.7545 59.3724 49.8933 59.2267 50.0846C59.081 50.276 59.0015 50.5095 59 50.75C59 59.3607 47.8974 65.375 32 65.375C16.1027 65.375 5.00003 59.3607 5.00003 50.75C4.99859 50.5095 4.91903 50.276 4.77334 50.0846C4.62765 49.8933 4.42372 49.7545 4.19228 49.6891L3.79628 50.7162L3.24503 52.1675C3.13253 52.4454 3.06053 52.73 2.96378 53.0124C4.59728 61.8425 15.8484 67.625 32 67.625C48.1516 67.625 59.4028 61.8425 61.0363 53.0124C60.9395 52.7311 60.8619 52.4454 60.755 52.1675Z" fill="#514B3F"/>
<path d="M33.125 46.7574V44.9315C33.1251 44.3348 33.3623 43.7626 33.7842 43.3408L34.7158 42.4092C34.9857 42.133 35.1795 41.7916 35.2783 41.4181L35.933 40.895V40.625C35.933 39.3504 34.1758 37.8125 31.9955 37.8125C29.8153 37.8125 28.058 39.3504 28.058 40.625V40.895L28.7116 41.4159C28.8106 41.7898 29.0043 42.132 29.2741 42.4092L30.2056 43.3408C30.4164 43.5488 30.584 43.7964 30.6989 44.0694C30.8138 44.3424 30.8736 44.6353 30.875 44.9315V46.7574C30.2066 47.6203 29.3558 48.3248 28.3833 48.8205C27.4109 49.3163 26.341 49.591 25.25 49.625C25.25 50.0199 25.5515 50.3832 26.0724 50.6982C27.736 50.4502 29.2649 49.6413 30.4059 48.4055C30.6132 48.1926 30.8611 48.0234 31.1349 47.9079C31.4087 47.7924 31.7028 47.7328 32 47.7328C32.2972 47.7328 32.5913 47.7924 32.8651 47.9079C33.1389 48.0234 33.3868 48.1926 33.5941 48.4055C34.7351 49.6413 36.264 50.4502 37.9276 50.6982C38.4485 50.3832 38.75 50.0232 38.75 49.625C37.659 49.591 36.5891 49.3163 35.6167 48.8205C34.6442 48.3248 33.7934 47.6203 33.125 46.7574ZM30.8075 42.3699L28.625 40.625C28.625 39.6575 30.1325 38.375 32 38.375C33.8675 38.375 35.375 39.6575 35.375 40.625L33.1925 42.3687C33.0379 42.5289 32.8527 42.6563 32.6478 42.7434C32.4429 42.8304 32.2226 42.8752 32 42.8752C31.7774 42.8752 31.5571 42.8304 31.3522 42.7434C31.1473 42.6563 30.9621 42.5301 30.8075 42.3699Z" fill="#514B3F"/>
<path d="M43.25 35H38.75C38.7471 32.6191 39.4477 30.2904 40.7638 28.3062C41.1366 27.6604 41.6594 27.1137 42.2879 26.7123C42.9164 26.311 43.6322 26.0666 44.375 26C47.48 26 50 28.6325 50 30.5C50 31.6935 49.5259 32.8381 48.682 33.682C47.8381 34.5259 46.6935 35 45.5 35H43.25Z" fill="#FFD869"/>
<path d="M47.75 31.625C47.7535 30.8704 47.5663 30.1272 47.2058 29.4643C46.8453 28.8014 46.3232 28.2403 45.6879 27.8331C45.0527 27.4258 44.3248 27.1857 43.572 27.1348C42.8191 27.084 42.0656 27.2242 41.3814 27.5424C41.1594 27.7836 40.9531 28.0387 40.7638 28.3063C39.8391 29.6823 39.2199 31.2406 38.948 32.876C39.1864 33.6993 39.6566 34.4366 40.3025 35H45.5C45.767 34.9969 46.0331 34.9702 46.2954 34.9201C46.7528 34.5016 47.1183 33.9926 47.3687 33.4253C47.6191 32.8581 47.749 32.245 47.75 31.625Z" fill="#392C1C"/>
<path d="M43.25 35C45.114 35 46.625 33.489 46.625 31.625C46.625 29.761 45.114 28.25 43.25 28.25C41.386 28.25 39.875 29.761 39.875 31.625C39.875 33.489 41.386 35 43.25 35Z" fill="#1A1511"/>
<path d="M44.1828 31.2119C44.3643 31.0305 44.3069 30.679 44.0547 30.4268C43.8026 30.1746 43.451 30.1173 43.2696 30.2987C43.0881 30.4802 43.1455 30.8317 43.3977 31.0839C43.6498 31.336 44.0014 31.3934 44.1828 31.2119Z" fill="#F6FAFD"/>
<path d="M46.625 31.625C47.2463 31.625 47.75 31.1213 47.75 30.5C47.75 29.8787 47.2463 29.375 46.625 29.375C46.0037 29.375 45.5 29.8787 45.5 30.5C45.5 31.1213 46.0037 31.625 46.625 31.625Z" fill="#F6FAFD"/>
<path d="M54.5 29.375C53.1838 29.375 50.7166 27.836 48.8919 26.5625C47.6241 25.4991 46.0295 24.9034 44.375 24.875C40.397 24.875 37.625 30.2109 37.625 35C37.625 35.2984 37.7435 35.5845 37.9545 35.7955C38.1655 36.0065 38.4516 36.125 38.75 36.125H45.5C46.9913 36.1232 48.421 35.53 49.4755 34.4755C50.53 33.421 51.1232 31.9913 51.125 30.5C51.1192 30.1171 51.0531 29.7374 50.9293 29.375H54.5ZM45.5 35H38.75C38.75 30.6474 41.2655 26 44.375 26C47.4845 26 50 28.6347 50 30.5C50 31.6935 49.5259 32.8381 48.682 33.682C47.8381 34.5259 46.6935 35 45.5 35Z" fill="#392C1C"/>
<path d="M20.75 35H18.5C17.3065 35 16.1619 34.5259 15.318 33.682C14.4741 32.8381 14 31.6935 14 30.5C14 28.6325 16.52 26 19.625 26C20.3678 26.0666 21.0836 26.311 21.7121 26.7123C22.3406 27.1137 22.8634 27.6604 23.2362 28.3062C24.5524 30.2904 25.2529 32.6191 25.25 35H20.75Z" fill="#FFD869"/>
<path d="M22.6186 27.5424C21.6473 27.0928 20.5473 27.0054 19.5172 27.2959C18.4871 27.5864 17.5948 28.2356 17.0015 29.1264C16.4082 30.0172 16.1529 31.0908 16.2819 32.1533C16.4108 33.2158 16.9155 34.1971 17.7046 34.9201C17.9669 34.9702 18.233 34.9969 18.5 35H23.6975C24.3417 34.436 24.8103 33.6987 25.0475 32.876C24.7769 31.2409 24.1593 29.6827 23.2362 28.3062C23.0469 28.0387 22.8406 27.7836 22.6186 27.5424Z" fill="#392C1C"/>
<path d="M20.75 35C22.614 35 24.125 33.489 24.125 31.625C24.125 29.761 22.614 28.25 20.75 28.25C18.886 28.25 17.375 29.761 17.375 31.625C17.375 33.489 18.886 35 20.75 35Z" fill="#1A1511"/>
<path d="M17.375 31.625C17.9963 31.625 18.5 31.1213 18.5 30.5C18.5 29.8787 17.9963 29.375 17.375 29.375C16.7537 29.375 16.25 29.8787 16.25 30.5C16.25 31.1213 16.7537 31.625 17.375 31.625Z" fill="#F6FAFD"/>
<path d="M13.0707 29.375C12.9469 29.7374 12.8808 30.1171 12.875 30.5C12.8768 31.9913 13.47 33.421 14.5245 34.4755C15.579 35.53 17.0087 36.1232 18.5 36.125H25.25C25.5484 36.125 25.8345 36.0065 26.0455 35.7955C26.2565 35.5845 26.375 35.2984 26.375 35C26.375 30.2109 23.603 24.875 19.625 24.875C17.9701 24.9031 16.3751 25.4989 15.107 26.5625C13.2834 27.836 10.8162 29.375 9.5 29.375H13.0707ZM14 30.5C14 28.6347 16.5155 26 19.625 26C22.7345 26 25.25 30.6474 25.25 35H18.5C17.3065 35 16.1619 34.5259 15.318 33.682C14.4741 32.8381 14 31.6935 14 30.5Z" fill="#392C1C"/>
<path d="M20.4299 31.0484C20.6821 30.7962 20.7394 30.4447 20.558 30.2632C20.3765 30.0818 20.025 30.1391 19.7728 30.3913C19.5207 30.6435 19.4633 30.995 19.6448 31.1764C19.8262 31.3579 20.1777 31.3005 20.4299 31.0484Z" fill="#F6FAFD"/>
<path d="M37.0625 44C37.3732 44 37.625 43.7482 37.625 43.4375C37.625 43.1268 37.3732 42.875 37.0625 42.875C36.7518 42.875 36.5 43.1268 36.5 43.4375C36.5 43.7482 36.7518 44 37.0625 44Z" fill="#B0A8A0"/>
<path d="M35.9375 47.375C36.2482 47.375 36.5 47.1232 36.5 46.8125C36.5 46.5018 36.2482 46.25 35.9375 46.25C35.6268 46.25 35.375 46.5018 35.375 46.8125C35.375 47.1232 35.6268 47.375 35.9375 47.375Z" fill="#B0A8A0"/>
<path d="M34.8125 46.25C35.1232 46.25 35.375 45.9982 35.375 45.6875C35.375 45.3768 35.1232 45.125 34.8125 45.125C34.5018 45.125 34.25 45.3768 34.25 45.6875C34.25 45.9982 34.5018 46.25 34.8125 46.25Z" fill="#B0A8A0"/>
<path d="M28.0625 46.25C28.3732 46.25 28.625 45.9982 28.625 45.6875C28.625 45.3768 28.3732 45.125 28.0625 45.125C27.7518 45.125 27.5 45.3768 27.5 45.6875C27.5 45.9982 27.7518 46.25 28.0625 46.25Z" fill="#B0A8A0"/>
<path d="M28.0625 44C28.3732 44 28.625 43.7482 28.625 43.4375C28.625 43.1268 28.3732 42.875 28.0625 42.875C27.7518 42.875 27.5 43.1268 27.5 43.4375C27.5 43.7482 27.7518 44 28.0625 44Z" fill="#B0A8A0"/>
<path d="M25.8125 47.375C26.1232 47.375 26.375 47.1232 26.375 46.8125C26.375 46.5018 26.1232 46.25 25.8125 46.25C25.5018 46.25 25.25 46.5018 25.25 46.8125C25.25 47.1232 25.5018 47.375 25.8125 47.375Z" fill="#B0A8A0"/>
<path d="M25.8125 42.875C26.1232 42.875 26.375 42.6232 26.375 42.3125C26.375 42.0018 26.1232 41.75 25.8125 41.75C25.5018 41.75 25.25 42.0018 25.25 42.3125C25.25 42.6232 25.5018 42.875 25.8125 42.875Z" fill="#B0A8A0"/>
<path d="M14 52.1562C13.9698 52.1563 13.9397 52.1514 13.9111 52.1416C13.8404 52.118 13.782 52.0673 13.7487 52.0007C13.7154 51.934 13.7099 51.8568 13.7334 51.7861C16.025 44.9225 25.9531 44.8438 26.375 44.8438C26.4496 44.8438 26.5211 44.8734 26.5739 44.9261C26.6266 44.9789 26.6562 45.0504 26.6562 45.125C26.6562 45.1996 26.6266 45.2711 26.5739 45.3239C26.5211 45.3766 26.4496 45.4062 26.375 45.4062C26.276 45.4062 16.4255 45.4861 14.2666 51.9639C14.248 52.0199 14.2122 52.0686 14.1644 52.1031C14.1165 52.1376 14.059 52.1562 14 52.1562ZM17.375 56.6562C17.3004 56.6562 17.2289 56.6266 17.1761 56.5739C17.1234 56.5211 17.0938 56.4496 17.0938 56.375C17.0938 49.4855 26.2141 47.1252 26.3064 47.1027C26.3429 47.0912 26.3814 47.0873 26.4196 47.0912C26.4577 47.0951 26.4946 47.1067 26.5281 47.1254C26.5615 47.1441 26.5908 47.1694 26.6142 47.1998C26.6375 47.2302 26.6543 47.2651 26.6637 47.3022C26.6731 47.3394 26.6748 47.3781 26.6686 47.4159C26.6625 47.4537 26.6487 47.4899 26.6281 47.5222C26.6075 47.5545 26.5805 47.5823 26.5488 47.6038C26.5171 47.6253 26.4813 47.6401 26.4436 47.6473C26.3548 47.6698 17.6562 49.9254 17.6562 56.375C17.6562 56.4496 17.6266 56.5211 17.5739 56.5739C17.5211 56.6266 17.4496 56.6562 17.375 56.6562ZM26.375 43.1562H12.875C12.8004 43.1562 12.7289 43.1266 12.6761 43.0739C12.6234 43.0211 12.5938 42.9496 12.5938 42.875C12.5938 42.8004 12.6234 42.7289 12.6761 42.6761C12.7289 42.6234 12.8004 42.5938 12.875 42.5938H26.375C26.4496 42.5938 26.5211 42.6234 26.5739 42.6761C26.6266 42.7289 26.6562 42.8004 26.6562 42.875C26.6562 42.9496 26.6266 43.0211 26.5739 43.0739C26.5211 43.1266 26.4496 43.1562 26.375 43.1562ZM50 52.1562C49.941 52.1562 49.8835 52.1376 49.8357 52.1031C49.7878 52.0686 49.752 52.0199 49.7334 51.9639C47.5723 45.4805 37.724 45.4062 37.625 45.4062C37.5504 45.4062 37.4789 45.3766 37.4261 45.3239C37.3734 45.2711 37.3438 45.1996 37.3438 45.125C37.3438 45.0504 37.3734 44.9789 37.4261 44.9261C37.4789 44.8734 37.5504 44.8438 37.625 44.8438C38.0469 44.8438 47.975 44.9225 50.2666 51.7861C50.2901 51.8568 50.2846 51.934 50.2513 52.0007C50.218 52.0673 50.1596 52.118 50.0889 52.1416C50.0603 52.1514 50.0302 52.1563 50 52.1562ZM46.625 56.6562C46.5504 56.6562 46.4789 56.6266 46.4261 56.5739C46.3734 56.5211 46.3438 56.4496 46.3438 56.375C46.3438 49.9254 37.6452 47.6698 37.5564 47.6473C37.4848 47.6291 37.4232 47.5836 37.3848 47.5205C37.3465 47.4573 37.3346 47.3816 37.3516 47.3098C37.3602 47.2741 37.3757 47.2405 37.3974 47.2109C37.4191 47.1813 37.4464 47.1563 37.4778 47.1373C37.5092 47.1184 37.544 47.1059 37.5803 47.1005C37.6166 47.0952 37.6536 47.0971 37.6891 47.1061C37.7814 47.1286 46.9017 49.4889 46.9017 56.3784C46.9009 56.4516 46.8715 56.5216 46.8198 56.5735C46.7681 56.6254 46.6982 56.6551 46.625 56.6562ZM51.125 43.1562H37.625C37.5504 43.1562 37.4789 43.1266 37.4261 43.0739C37.3734 43.0211 37.3438 42.9496 37.3438 42.875C37.3438 42.8004 37.3734 42.7289 37.4261 42.6761C37.4789 42.6234 37.5504 42.5938 37.625 42.5938H51.125C51.1996 42.5938 51.2711 42.6234 51.3239 42.6761C51.3766 42.7289 51.4062 42.8004 51.4062 42.875C51.4062 42.9496 51.3766 43.0211 51.3239 43.0739C51.2711 43.1266 51.1996 43.1562 51.125 43.1562Z" fill="#392C1C"/>
</svg>
