<svg width="82" height="67" viewBox="0 0 82 67" fill="none" xmlns="http://www.w3.org/2000/svg">
<path d="M62.697 44.1488L64.9062 38.625V10.5C64.9062 10.5 53.6562 0.65625 41 0.65625C28.3438 0.65625 17.0938 10.5 17.0938 10.5V38.625L19.303 44.1488H62.697Z" fill="#D3843D"/>
<path d="M43.8125 31.5938V11.9062C43.8125 11.1603 43.5162 10.445 42.9887 9.91751C42.4613 9.39007 41.7459 9.09375 41 9.09375C40.2541 9.09375 39.5387 9.39007 39.0113 9.91751C38.4838 10.445 38.1875 11.1603 38.1875 11.9062V31.5938C34.5439 41.3095 22.5177 43.6875 19.303 44.1488L25.5312 59.7188C26.9262 63.067 34.5594 66.75 38.1875 66.75H43.8125C47.4406 66.75 55.0737 63.067 56.4687 59.7188L62.697 44.1488C59.4823 43.6875 47.4561 41.3095 43.8125 31.5938Z" fill="#E8E7D6"/>
<path d="M41 61.125C42.4918 61.125 43.9226 60.5324 44.9775 59.4775C46.0324 58.4226 46.625 56.9918 46.625 55.5V54.0938C42.7423 54.0938 41 52.2052 41 49.875C41 52.2052 39.2577 54.0938 35.375 54.0938V55.5C35.375 56.9918 35.9676 58.4226 37.0225 59.4775C38.0774 60.5324 39.5082 61.125 41 61.125Z" fill="#F98C96"/>
<path d="M17.0937 10.5L3.03125 21.75C-1.64875 26.1502 1.0625 32.1211 3.03125 35.8125C5.53578 40.522 7.25 51.8016 7.25 56.9062C7.25 65.8922 17.0937 66.442 17.0937 48.4688V10.5Z" fill="#AD6327"/>
<path d="M39.5938 51.2812H42.4062V56.9062H39.5938V51.2812Z" fill="#DB527D"/>
<path d="M46.625 42.8438C46.4967 44.2924 45.8628 45.6498 44.8344 46.6782C43.806 47.7066 42.4487 48.3404 41 48.4688C39.5513 48.3404 38.194 47.7066 37.1656 46.6782C36.1372 45.6498 35.5033 44.2924 35.375 42.8438C35.375 40.5136 37.8936 40.0312 41 40.0312C44.1064 40.0312 46.625 40.5136 46.625 42.8438Z" fill="#394D5C"/>
<path d="M29.75 31.5938C31.3033 31.5938 32.5625 30.3346 32.5625 28.7812C32.5625 27.2279 31.3033 25.9688 29.75 25.9688C28.1967 25.9688 26.9375 27.2279 26.9375 28.7812C26.9375 30.3346 28.1967 31.5938 29.75 31.5938Z" fill="#143441"/>
<path d="M64.9062 10.5L78.9688 21.75C83.6488 26.1502 80.9375 32.1211 78.9688 35.8125C76.4642 40.522 74.75 51.8016 74.75 56.9062C74.75 65.8922 64.9062 66.442 64.9062 48.4688V10.5Z" fill="#AD6327"/>
<path d="M52.25 31.5938C53.8033 31.5938 55.0625 30.3346 55.0625 28.7812C55.0625 27.2279 53.8033 25.9688 52.25 25.9688C50.6967 25.9688 49.4375 27.2279 49.4375 28.7812C49.4375 30.3346 50.6967 31.5938 52.25 31.5938Z" fill="#143441"/>
<path d="M52.25 49.875C52.25 51.2025 49.8453 52.6875 46.625 52.6875C45.0486 52.6875 42.4062 52.3219 42.4062 49.875H39.5938C39.5938 52.3219 36.9514 52.6875 35.375 52.6875C32.1547 52.6875 29.75 51.2025 29.75 49.875H26.9375C26.9375 53.0292 30.6444 55.5 35.375 55.5C36.4033 55.5761 37.436 55.4339 38.4054 55.0828C39.3748 54.7316 40.2591 54.1794 41 53.4623C41.7409 54.1794 42.6251 54.7316 43.5946 55.0828C44.564 55.4339 45.5967 55.5761 46.625 55.5C51.3556 55.5 55.0625 53.0292 55.0625 49.875H52.25Z" fill="#143441"/>
</svg>
